PathFileType	4	(X/Y/Z)	Patient5_TMGait_0pt45_1_left_05.trc.trc
DataRate	CameraRate	NumFrames	NumMarkers	Units	OrigDataRate	OrigDataStartFrame	OrigNumFrames
57.851239669421	57.851239669421	6	32	mm	57.851239669421	1	       141
Frame#	Time	R.ASIS			L.ASIS			Chest			R.Shoulder			Neck			L.Shoulder			L.Elbow			L.Wrist			R.Elbow			R.Wrist			L.Thigh.Superior			L.Thigh.Lateral			L.Thigh.Inferior			L.Patella			L.Shank.Superior			L.Shank.Lateral			L.Shank.Inferior			L.Heel			L.Midfoot.Lateral			L.Midfoot.Superior			L.Toe			R.Thigh.Superior			R.Thigh.Lateral			R.Thigh.Inferior			R.Patella			R.Shank.Superior			R.Shank.Lateral			R.Shank.Inferior			R.Heel			R.Midfoot.Lateral			R.Midfoot.Superior			R.Toe			
		X1	Y1	Z1	X2	Y2	Z2	X3	Y3	Z3	X4	Y4	Z4	X5	Y5	Z5	X6	Y6	Z6	X7	Y7	Z7	X8	Y8	Z8	X9	Y9	Z9	X10	Y10	Z10	X11	Y11	Z11	X12	Y12	Z12	X13	Y13	Z13	X14	Y14	Z14	X15	Y15	Z15	X16	Y16	Z16	X17	Y17	Z17	X18	Y18	Z18	X19	Y19	Z19	X20	Y20	Z20	X21	Y21	Z21	X22	Y22	Z22	X23	Y23	Z23	X24	Y24	Z24	X25	Y25	Z25	X26	Y26	Z26	X27	Y27	Z27	X28	Y28	Z28	X29	Y29	Z29	X30	Y30	Z30	X31	Y31	Z31	X32	Y32	Z32	

1	6.800000000000	952.546674840925	973.667696649757	590.000807040412	927.096236283797	959.061221748487	351.736492410980	988.300542538052	1438.144696105962	503.122923534291	893.321926901724	1489.350910348234	678.598045258833	852.068083310268	1553.484578702827	498.028342714117	911.933153818526	1510.004636288042	311.908395488369	809.985200467019	1205.635524069652	171.369271238740	901.126553019025	932.964172596838	147.002683925492	827.990399816930	1160.750172059550	805.485067346481	1046.347080899941	984.109520684588	731.988187397615	953.632793559579	736.935459544286	320.979383758367	880.093871633987	668.648608705266	277.915012470994	961.394825645342	607.079656835848	324.354506924111	949.792667720387	463.561726892807	312.251500572315	851.828438850959	387.753486834504	343.295343571649	748.886118456232	372.823297181028	277.075525440136	756.704938515619	308.129438591683	362.344522030909	512.655833767442	200.258725475068	379.115732164287	561.154010113624	121.445668780866	319.777546752760	677.094810052008	108.832074670097	350.495215300808	731.819951176516	40.025506893066	359.316399214033	970.617546899682	742.228243695375	605.011586443041	886.482892651930	660.745953100103	654.421256244099	966.948051915101	613.358014500734	577.948148522642	968.925888486065	515.764101936136	603.481417662273	930.522779096494	418.112686629486	561.472673696448	860.379326832659	345.078077890518	638.962298628665	917.757389371818	279.413989176380	554.688730368617	803.901948389592	52.756672239804	506.448411859734	875.292888453234	24.999766737566	587.381028291465	983.028886693487	88.123692303953	572.368578538627	1086.195353283221	43.888262507962	583.164464027118	
2	6.817285714286	952.091672961931	972.016782191162	591.352307380310	925.015045870629	957.658109763536	354.196428186549	989.513110409989	1436.228152928350	504.910764897612	896.795745028847	1486.952033358391	681.583569908119	853.229605063561	1551.790751066859	501.767024500379	910.968787874599	1509.264744593513	314.970775627224	806.503537149761	1204.718135998041	176.190260348296	900.278021275772	933.146078636121	150.075405383550	833.805603405342	1159.207178056097	811.399394863509	1049.907104113016	980.427084201149	736.838912607217	960.044980754412	740.599506164620	319.560605823583	890.039615474635	669.718910077063	276.845674520300	975.014139211093	611.961542366079	322.160945590589	968.583551004195	467.230895769232	310.633537770992	868.852548828745	391.116778021693	341.442587630743	766.314831082823	378.814130180906	274.501402822427	770.952896265567	314.915452666304	360.516288221996	526.018288395083	221.128521301532	376.218527701640	568.415997254585	138.919812310281	317.268456369599	682.676231075406	117.763610099320	349.604956741747	729.792372595559	38.880835362801	358.416961472856	965.807955939092	740.352801924403	606.301311436105	879.731661615452	660.550457679579	656.406143722517	958.124569762116	611.667364200900	578.965497225181	958.544145643276	514.667770685346	603.997712967817	919.614257630518	418.509047042538	562.255081578515	850.843281485517	345.243599953409	640.298452077108	908.092532027681	279.888369039441	555.292833739214	795.577011123371	52.686207049059	506.527638062306	866.897272211023	24.893987572510	587.470348683782	974.620163112411	88.065562050264	572.324920587774	1077.897849099321	43.896377621638	583.105618344857	
3	6.834571428571	951.540929774485	970.473859672116	592.917854610038	923.023341561603	956.353054861238	356.659438993998	990.689304415930	1434.407496651346	506.526922212671	900.238077798913	1484.636994698345	684.370437838010	854.378034446372	1550.169544649099	505.301379883329	909.948967002470	1508.582445863104	317.862342801661	803.279367871979	1203.724514791681	180.884902296085	899.571236267924	933.215193530541	153.102538007218	839.630436764050	1157.765013238395	817.131172787370	1053.361327645664	976.680068353121	741.627418936081	966.201769013442	744.465415223483	318.542895598539	899.716825339276	671.055722677183	276.025340799020	988.176183761352	617.086678922398	320.350712685904	986.832881356377	471.156362069852	309.254292190165	885.457447471684	394.706221231079	339.809087904922	783.348776713248	384.832250561061	272.128781864164	784.999364812943	321.697028133707	358.840829211271	539.151306396786	240.761470160880	373.441234333612	576.140443747233	155.507968185566	314.819564365945	688.838693867734	126.578036259283	348.748600990718	728.953485523348	38.299707889388	357.497402788581	961.037217786429	738.552754233247	607.647805350500	873.174564351523	660.352963545475	658.398380882375	949.604587281324	610.068726570924	580.054315657290	948.561056664549	513.613897228311	604.608370920972	909.084773909497	418.871830136512	563.088492563571	841.550476015026	345.401099375178	641.632925757283	898.663833480136	280.324064330616	555.935014514971	787.339756682610	52.645515523695	506.631585012798	858.587743629418	24.798555131607	587.568000888091	966.308988309677	88.011350885993	572.296374568112	1069.688518891797	43.911908276907	583.051277557562	
4	6.851857142857	950.846502664210	969.122315372431	594.770028350243	921.181928491611	955.258666684599	359.097624045828	991.815871277301	1432.772933074700	507.840609573420	903.616490610828	1482.535991134280	686.782813695741	855.528469417104	1548.721775745107	508.430142218959	908.911048236018	1508.001780369831	320.421652023066	800.552506091595	1202.634980278386	185.289667852925	899.141771665631	933.110367271580	156.034817820796	845.411963499717	1156.565534453620	822.484877892042	1056.608419535841	972.934845308716	746.233632425811	971.863006614573	748.689097013363	318.244867406369	908.863333455362	672.891099656917	275.660342915627	1000.441984011333	622.647886183994	319.257112378542	1004.053638516592	475.581580561598	308.334047150153	901.321941189920	398.665028111985	338.591896549988	799.668491333004	390.783758101447	270.162197391965	798.736433086595	328.306840073290	357.451855138205	551.997629886737	257.692781732582	370.923104545920	584.924079778390	170.128768812424	312.483192794627	696.330422487260	134.968237896547	347.919349808774	730.744676175489	38.666809521876	356.460759356324	956.385709155031	736.906366820993	609.085727651118	866.995857537840	660.157371620568	660.368709099729	941.686327196884	608.635643341505	581.257123026823	939.335805983593	512.636929923642	605.370363730848	899.268974076598	419.158041416902	563.993267650172	832.719187899803	345.550643403886	642.936432005489	889.678949001843	280.683799840217	556.630023424287	779.235509415394	52.654663798948	506.772920028634	850.419647899935	24.725452094619	587.677233764481	958.153676013553	87.963776725836	572.294711771271	1061.617334623481	43.940086716289	583.006577408202	
5	6.869142857143	949.965225240055	968.035233971745	596.962905621613	919.514432693565	954.465834971945	361.476412075943	992.904958383709	1431.386402436939	508.785851027481	906.920238405796	1480.779366720921	688.708568089529	856.717441343935	1547.544368884797	511.012383651507	907.950963553861	1507.548460598055	322.540120186144	798.481717442280	1201.480019529665	189.267819401092	899.090924540226	932.829072797032	158.843676718501	851.074572682056	1155.745217616755	827.307791072281	1059.584453567616	969.333591538300	750.544152815980	976.882953017970	753.358361083584	318.854498734805	917.315866098138	675.384011731772	275.875675199526	1011.525434779321	628.760101899134	319.103181523179	1019.953657866538	480.686058764074	308.022681013660	916.299404099950	403.047817614311	337.911885626624	815.104738943516	396.541420714916	268.753607891838	812.175243672555	334.519591744154	356.437247576586	564.613535132618	270.663747790213	368.783252812686	595.322567264571	181.823126585943	310.299441391239	705.880045594328	142.609259282160	347.063331411137	736.557741814915	40.224613234821	355.162653176834	951.952059861736	735.481582046961	610.643689933727	861.326122333977	659.972105891124	662.269424667335	934.604405099970	607.412261370707	582.595077520638	931.114989483814	511.757973582449	606.306887043326	890.416259900759	419.343251731318	564.968817797798	824.494095222745	345.696253877238	644.160794842360	881.271955979131	280.940272810815	557.371326812796	771.251510362549	52.721942157129	506.955735734182	842.390899520690	24.686679684872	587.795204161262	950.155741569217	87.923383002790	572.323169893452	1053.678037173214	43.982736327067	582.977824342898	
6	6.886428571429	948.870314665841	967.253919995899	599.481111154749	918.009615908190	954.031903746989	363.744782240414	993.986535249122	1430.274878067131	509.366522687759	910.142686557043	1479.481611239380	690.107119147327	857.991273539380	1546.716010374177	512.975402179601	907.213422148047	1507.222290600911	324.166738571799	797.134369388325	1200.333161499769	192.707619757361	899.470026999564	932.422086253296	161.507295583963	856.503582288287	1155.413168640605	831.493364424760	1062.259561504106	966.087994652481	754.445251461643	981.197991848405	758.460098505477	320.386745686428	924.989912602764	678.581973671741	276.690657085666	1021.282169812021	635.420494219412	319.960395577883	1034.408786536929	486.540688290789	308.382071466762	930.384214806396	407.795229734557	337.803996959754	829.617077767830	401.916468417654	267.988388470173	825.416436549894	340.050782036651	355.832678056038	577.187474326765	278.752581046546	367.109931213247	607.770541709561	189.859091535299	308.290114607641	718.067530557935	149.158608860148	346.096057838717	747.457503799547	42.958922881431	353.436230104220	947.840152334093	734.321083626713	612.321248512915	856.231822224880	659.808846582073	664.036694701887	928.496218608680	606.406807407575	584.054339058626	924.005422467025	510.982681052907	607.397059009153	882.662146256860	419.425219355413	565.986275158125	816.940638091539	345.846513618657	645.248963115843	873.502575869292	281.082190137093	558.131349574861	763.347499138178	52.843335681569	507.172166757536	834.471198393552	24.688394769653	587.911627285190	942.286525138594	87.889538787492	572.378350935283	1045.837454824763	44.037669209057	582.969776572710	
